


**************************** TPB IS BENEDICTION TO ME ****************************
*                                                                                 *
*										  *
*	        *                       *                       *	          *
*              ***                     ***                     ***                *
*	      *****                   *****                   *****		  *
*            *******                 *******                 *******		  *
*           *********		    *********               *********             *
*          ***********	           ***********             *********** 		  *
*         *************           *************           *************           *
*        ***************         ***************         ***************	  *
*       *****************       *****************       *****************         *
*      *******************     *******************     *******************        *
*     *** TPB IS D BEST ***   *** TPB IS D BEST ***   *** TPB IS D BEST *** 	  *
*      *******************     *******************     *******************	  *
*       *****************       *****************       *****************         *
*        ***************         ***************         ***************          *
*         *************           *************           *************	 	  *
*          ***********             ***********             ***********            *
*           *********               *********               *********             *
*            *******                 *******                 *******              *
*             *****                   *****		      *****               *
*	       ***                     ***                     ***                *
*	        *                       *                       *                 *
*										  *
*										  *
***************************** TPB IS BENEDICTION TO ME ****************************



Screen Link :---


                                 
http://www.shotpix.com/images/32175341547633868923.jpg 
 
http://www.shotpix.com/images/59026109452634983126.jpg 
 
http://www.shotpix.com/images/67795283334461190812.jpg 
 
http://www.shotpix.com/images/34869982518035947422.jpg



Torrent Status :---


                          
http://torrent-stats.info/ca70/136838340.png



General Info :---


Format                           : Matroska
File size                        : 701 MiB
Duration                         : 1h 40mn
Overall bit rate                 : 975 Kbps

Video
ID                               : 1
Format                           : AVC
Format/Info                      : Advanced Video Codec
Format profile                   : High@L4.0
Format settings, CABAC           : Yes
Format settings, ReFrames        : 3 frames
Format settings, GOP             : N=1
Codec ID                         : V_MPEG4/ISO/AVC
Duration                         : 1h 40mn
Bit rate mode                    : Variable
Bit rate                         : 846 Kbps
Maximum bit rate                 : 25.0 Mbps
Width                            : 720 pixels
Height                           : 404 pixels
Display aspect ratio             : 16:9
Frame rate                       : 23.976 fps
Color space                      : YUV
Chroma subsampling               : 4:2:0
Bit depth                        : 8 bits
Scan type                        : Progressive
Bits/(Pixel*Frame)               : 0.121
Stream size                      : 595 MiB (85%)

Audio
ID                               : 2
Format                           : MPEG Audio
Format version                   : Version 1
Format profile                   : Layer 2
Codec ID                         : A_MPEG/L2
Codec ID/Hint                    : MP2
Duration                         : 1h 40mn
Bit rate mode                    : Constant
Bit rate                         : 128 Kbps
Channel(s)                       : 2 channels
Sampling rate                    : 44.1 KHz
Compression mode                 : Lossy
Stream size                      : 92.0 MiB (13%)



***************************** TPB IS BENEDICTION TO ME ****************************
*                                                                                 *
*										  *
*	        *                       *                       *	          *
*              ***                     ***                     ***                *
*	      *****                   *****                   *****		  *
*            *******                 *******                 *******		  *
*           *********		    *********               *********             *
*          ***********	           ***********             *********** 		  *
*         *************           *************           *************           *
*        ***************         ***************         ***************	  *
*       *****************       *****************       *****************         *
*      *******************     *******************     *******************        *
*     *** TPB IS D BEST ***   *** TPB IS D BEST ***   *** TPB IS D BEST *** 	  *
*      *******************     *******************     *******************	  *
*       *****************       *****************       *****************         *
*        ***************         ***************         ***************          *
*         *************           *************           *************	 	  *
*          ***********             ***********             ***********            *
*           *********               *********               *********             *
*            *******                 *******                 *******              *
*             *****                   *****		      *****               *
*	       ***                     ***                     ***                *
*	        *                       *                       *                 *
*										  *
*										  *
***************************** TPB IS BENEDICTION TO ME ****************************


									